<svg width="154" height="45" fill="none" xmlns="http://www.w3.org/2000/svg"><path d="M55.424 20.16c-1.43 0-2.517-.384-3.264-1.152-.736-.768-1.13-1.83-1.184-3.184-.01-.288-.016-.757-.016-1.408 0-.661.005-1.141.016-1.44.053-1.344.453-2.4 1.2-3.168.747-.779 1.83-1.168 3.248-1.168.95 0 1.755.17 2.416.512.661.33 1.163.768 1.504 1.312.341.544.528 1.125.56 1.744v.032c0 .085-.037.16-.112.224a.34.34 0 01-.224.08h-.88c-.213 0-.347-.123-.4-.368-.181-.8-.507-1.36-.976-1.68-.47-.33-1.099-.496-1.888-.496-1.835 0-2.784 1.019-2.848 3.056-.01.288-.016.73-.016 1.328 0 .597.005 1.05.016 1.36.064 2.037 1.013 3.056 2.848 3.056.79 0 1.419-.16 1.888-.48.48-.33.805-.896.976-1.696.032-.139.08-.235.144-.288a.387.387 0 01.256-.08h.88c.096 0 .176.032.24.096a.226.226 0 01.096.224 3.607 3.607 0 01-.56 1.76c-.341.544-.843.987-1.504 1.328-.661.33-1.467.496-2.416.496zm9.824 0c-1.173 0-2.085-.33-2.736-.992-.64-.661-.981-1.541-1.024-2.64l-.016-.688.016-.688c.043-1.088.39-1.963 1.04-2.624.65-.672 1.558-1.008 2.72-1.008 1.163 0 2.07.336 2.72 1.008.65.661.998 1.536 1.04 2.624.01.117.016.347.016.688 0 .341-.005.57-.016.688-.042 1.099-.39 1.979-1.04 2.64-.64.661-1.546.992-2.72.992zm0-1.232c.672 0 1.2-.213 1.584-.64.395-.427.608-1.04.64-1.84.01-.107.016-.31.016-.608 0-.299-.005-.501-.016-.608-.032-.8-.245-1.413-.64-1.84-.384-.427-.912-.64-1.584-.64s-1.205.213-1.6.64c-.394.427-.602 1.04-.624 1.84l-.016.608.016.608c.022.8.23 1.413.624 1.84.395.427.928.64 1.6.64zM73.627 20c-.277 0-.475-.133-.592-.4l-2.96-7.424-.032-.16a.326.326 0 01.336-.336h.768c.181 0 .314.09.4.272l2.432 6.304 2.432-6.304c.096-.181.224-.272.384-.272h.784c.085 0 .16.032.224.096a.303.303 0 01.112.24l-.032.16-2.976 7.424c-.117.267-.315.4-.592.4h-.688zm8.994.16c-1.098 0-1.978-.336-2.64-1.008-.65-.683-1.008-1.61-1.072-2.784l-.016-.544.016-.528c.075-1.152.438-2.07 1.088-2.752.662-.683 1.531-1.024 2.608-1.024 1.184 0 2.102.379 2.752 1.136.651.747.976 1.76.976 3.04v.272a.37.37 0 01-.112.272.346.346 0 01-.256.096H80.43v.144c.032.693.24 1.285.624 1.776.395.48.912.72 1.552.72.491 0 .891-.096 1.2-.288.32-.203.555-.41.704-.624.096-.128.166-.203.208-.224a.563.563 0 01.272-.048h.784c.096 0 .176.027.24.08a.275.275 0 01.096.224c0 .235-.149.517-.448.848-.288.33-.698.619-1.232.864-.522.235-1.125.352-1.808.352zm2.192-4.928v-.048c0-.736-.202-1.333-.608-1.792-.394-.47-.928-.704-1.6-.704s-1.205.235-1.6.704c-.384.459-.576 1.056-.576 1.792v.048h4.384zM88.615 20a.404.404 0 01-.272-.096.404.404 0 01-.097-.272v-7.568a.4.4 0 01.097-.272.37.37 0 01.272-.112h.736a.37.37 0 01.272.112.37.37 0 01.111.272v.704c.438-.725 1.184-1.088 2.24-1.088h.624a.32.32 0 01.257.112.32.32 0 01.111.256v.656a.32.32 0 01-.111.256.346.346 0 01-.257.096h-.96c-.576 0-1.029.17-1.36.512-.33.33-.496.784-.496 1.36v4.704a.37.37 0 01-.111.272.404.404 0 01-.273.096h-.783zm7.905.16a3.343 3.343 0 01-1.456-.32 2.788 2.788 0 01-1.072-.864 2.132 2.132 0 01-.384-1.232c0-.704.288-1.28.864-1.728.586-.459 1.376-.757 2.368-.896l2.384-.336v-.464c0-1.088-.624-1.632-1.872-1.632-.47 0-.854.101-1.152.304a1.967 1.967 0 00-.672.688.435.435 0 01-.128.208c-.043.043-.107.064-.192.064h-.688a.382.382 0 01-.256-.096.382.382 0 01-.096-.256c.01-.256.128-.544.352-.864.234-.33.592-.613 1.072-.848.48-.245 1.072-.368 1.776-.368 1.194 0 2.053.283 2.576.848.522.555.784 1.248.784 2.08v5.184a.373.373 0 01-.112.272.347.347 0 01-.256.096h-.736a.404.404 0 01-.272-.096.404.404 0 01-.096-.272v-.688c-.235.341-.576.63-1.024.864-.448.235-1.019.352-1.712.352zm.336-1.2c.693 0 1.258-.224 1.696-.672.448-.459.672-1.115.672-1.968v-.448l-1.856.272c-.758.107-1.328.288-1.712.544-.384.245-.576.56-.576.944 0 .427.176.757.528.992.352.224.768.336 1.248.336zm9.58 4.56c-.875 0-1.579-.15-2.112-.448-.534-.288-.912-.619-1.136-.992-.224-.373-.347-.71-.368-1.008a.32.32 0 01.096-.272.407.407 0 01.272-.112h.768a.42.42 0 01.24.064.594.594 0 01.16.272c.128.341.336.635.624.88.298.256.757.384 1.376.384.789 0 1.37-.17 1.744-.512.373-.33.56-.923.56-1.776v-1.088c-.278.352-.63.635-1.056.848-.427.203-.934.304-1.52.304-1.131 0-1.979-.357-2.544-1.072-.555-.725-.848-1.643-.88-2.752l-.016-.448.016-.432c.032-1.099.33-2.01.896-2.736.565-.736 1.408-1.104 2.528-1.104s1.994.41 2.624 1.232v-.688c0-.107.032-.197.096-.272a.369.369 0 01.272-.112h.736a.37.37 0 01.272.112.373.373 0 01.112.272v7.76c0 2.464-1.254 3.696-3.76 3.696zm-.032-4.736c.725 0 1.274-.24 1.648-.72.373-.48.576-1.05.608-1.712.01-.096.016-.283.016-.56 0-.267-.006-.448-.016-.544-.032-.661-.235-1.232-.608-1.712-.363-.48-.912-.72-1.648-.72-.758 0-1.307.235-1.648.704-.342.47-.528 1.088-.56 1.856l-.016.416.016.432c.032.757.218 1.376.56 1.856.341.47.89.704 1.648.704zm9.499 1.376c-1.099 0-1.979-.336-2.64-1.008-.651-.683-1.008-1.61-1.072-2.784l-.016-.544.016-.528c.074-1.152.437-2.07 1.088-2.752.661-.683 1.53-1.024 2.608-1.024 1.184 0 2.101.379 2.752 1.136.65.747.976 1.76.976 3.04v.272a.373.373 0 01-.112.272.347.347 0 01-.256.096h-5.536v.144c.032.693.24 1.285.624 1.776.394.48.912.72 1.552.72.49 0 .89-.096 1.2-.288.32-.203.554-.41.704-.624.096-.128.165-.203.208-.224.053-.032.144-.048.272-.048h.784c.096 0 .176.027.24.08a.275.275 0 01.096.224c0 .235-.15.517-.448.848-.288.33-.699.619-1.232.864-.523.235-1.126.352-1.808.352zm2.192-4.928v-.048c0-.736-.203-1.333-.608-1.792-.395-.47-.928-.704-1.6-.704s-1.206.235-1.6.704c-.384.459-.576 1.056-.576 1.792v.048h4.384zM52.244 40a.51.51 0 01-.374-.154.51.51 0 01-.154-.374V25.15c0-.161.044-.293.132-.396a.536.536 0 01.396-.154h5.896c1.76 0 3.146.418 4.158 1.254 1.012.821 1.518 2.031 1.518 3.63 0 1.599-.506 2.809-1.518 3.63-.997.807-2.383 1.21-4.158 1.21h-3.278v5.148a.51.51 0 01-.154.374.466.466 0 01-.374.154h-2.09zm5.786-8.118c.85 0 1.503-.198 1.958-.594.455-.41.682-1.012.682-1.804 0-.763-.22-1.357-.66-1.782-.44-.44-1.1-.66-1.98-.66h-3.212v4.84h3.212zM66.482 40a.509.509 0 01-.374-.154.51.51 0 01-.154-.374V29.11a.51.51 0 01.154-.374.48.48 0 01.374-.176h1.782c.161 0 .293.051.396.154a.536.536 0 01.154.396v.902a3.49 3.49 0 011.32-1.078c.543-.25 1.159-.374 1.848-.374h.902c.161 0 .286.051.374.154a.466.466 0 01.154.374v1.584a.51.51 0 01-.154.374.466.466 0 01-.374.154h-1.716c-.69 0-1.232.198-1.628.594-.396.396-.594.939-.594 1.628v6.05a.51.51 0 01-.154.374.536.536 0 01-.396.154h-1.914zm13.555.22c-1.716 0-3.043-.44-3.982-1.32-.938-.895-1.444-2.112-1.518-3.652l-.022-.968.022-.968c.074-1.525.587-2.735 1.54-3.63.954-.895 2.274-1.342 3.96-1.342 1.687 0 3.007.447 3.96 1.342.954.895 1.467 2.105 1.54 3.63.015.176.022.499.022.968 0 .47-.007.792-.022.968-.073 1.54-.579 2.757-1.518 3.652-.938.88-2.266 1.32-3.982 1.32zm0-2.178c.778 0 1.38-.242 1.804-.726.426-.499.66-1.225.704-2.178.015-.147.022-.433.022-.858s-.007-.711-.022-.858c-.044-.953-.278-1.672-.704-2.156-.425-.499-1.026-.748-1.804-.748-.777 0-1.378.25-1.804.748-.425.484-.66 1.203-.704 2.156l-.022.858.022.858c.044.953.28 1.68.704 2.178.426.484 1.027.726 1.804.726zM89.628 40a.51.51 0 01-.374-.154.51.51 0 01-.154-.374v-8.58h-1.782a.51.51 0 01-.374-.154.586.586 0 01-.154-.396v-1.254a.51.51 0 01.154-.374.51.51 0 01.374-.154H89.1v-.902c0-2.625 1.437-3.938 4.312-3.938h1.496c.161 0 .286.051.374.154a.466.466 0 01.154.374v1.254a.536.536 0 01-.154.396.51.51 0 01-.374.154H93.5c-.572 0-.975.14-1.21.418-.22.279-.33.711-.33 1.298v.792h2.728c.161 0 .286.051.374.154a.466.466 0 01.154.374v1.254a.536.536 0 01-.154.396.51.51 0 01-.374.154H91.96v8.58a.51.51 0 01-.154.374.51.51 0 01-.374.154h-1.804zm12.106.22c-1.628 0-2.926-.47-3.894-1.408-.954-.953-1.46-2.288-1.519-4.004l-.022-.55.022-.55c.074-1.672.587-2.985 1.54-3.938.968-.953 2.259-1.43 3.873-1.43 1.73 0 3.065.528 4.004 1.584.953 1.056 1.43 2.464 1.43 4.224v.462a.512.512 0 01-.154.374.537.537 0 01-.396.154h-7.304v.176c.029.807.249 1.489.66 2.046.425.543 1.004.814 1.738.814.865 0 1.562-.337 2.09-1.012.132-.161.234-.264.308-.308a.852.852 0 01.374-.066h1.892c.132 0 .242.044.33.132a.338.338 0 01.154.286c0 .352-.213.77-.638 1.254-.411.47-1.005.88-1.782 1.232-.778.352-1.68.528-2.706.528zm2.442-6.93v-.066c0-.865-.22-1.562-.66-2.09-.426-.528-1.02-.792-1.782-.792-.763 0-1.357.264-1.782.792-.426.528-.638 1.225-.638 2.09v.066h4.862zm9.661 6.93c-1.1 0-2.024-.161-2.772-.484-.748-.337-1.306-.726-1.672-1.166-.352-.455-.528-.843-.528-1.166a.44.44 0 01.154-.352.524.524 0 01.352-.132h1.738c.132 0 .242.051.33.154.058.044.212.176.462.396.249.235.542.418.88.55.337.132.711.198 1.122.198.586 0 1.07-.117 1.452-.352.381-.235.572-.557.572-.968 0-.308-.088-.557-.264-.748-.162-.19-.462-.36-.902-.506-.44-.161-1.093-.33-1.958-.506-1.247-.264-2.171-.667-2.772-1.21-.587-.543-.88-1.261-.88-2.156 0-.587.176-1.137.528-1.65.352-.528.872-.953 1.562-1.276.704-.337 1.54-.506 2.508-.506.982 0 1.833.161 2.552.484.718.308 1.261.682 1.628 1.122.381.425.572.807.572 1.144 0 .132-.052.25-.154.352a.448.448 0 01-.33.132h-1.628c-.118 0-.242-.051-.374-.154a5.58 5.58 0 01-.484-.418 2.453 2.453 0 00-.77-.484 2.778 2.778 0 00-1.034-.176c-.543 0-.968.117-1.276.352-.294.235-.44.543-.44.924 0 .279.073.506.22.682.146.176.432.345.858.506.425.161 1.063.323 1.914.484 1.408.279 2.412.711 3.014 1.298.616.587.924 1.305.924 2.156 0 1.027-.448 1.863-1.342 2.508-.895.645-2.149.968-3.762.968zm11.709 0c-1.1 0-2.024-.161-2.772-.484-.748-.337-1.306-.726-1.672-1.166-.352-.455-.528-.843-.528-1.166a.44.44 0 01.154-.352.524.524 0 01.352-.132h1.738c.132 0 .242.051.33.154.058.044.212.176.462.396.249.235.542.418.88.55.337.132.711.198 1.122.198.586 0 1.07-.117 1.452-.352.381-.235.572-.557.572-.968 0-.308-.088-.557-.264-.748-.162-.19-.462-.36-.902-.506-.44-.161-1.093-.33-1.958-.506-1.247-.264-2.171-.667-2.772-1.21-.587-.543-.88-1.261-.88-2.156 0-.587.176-1.137.528-1.65.352-.528.872-.953 1.562-1.276.704-.337 1.54-.506 2.508-.506.982 0 1.833.161 2.552.484.718.308 1.261.682 1.628 1.122.381.425.572.807.572 1.144 0 .132-.052.25-.154.352a.448.448 0 01-.33.132h-1.628c-.118 0-.242-.051-.374-.154a5.58 5.58 0 01-.484-.418 2.453 2.453 0 00-.77-.484 2.778 2.778 0 00-1.034-.176c-.543 0-.968.117-1.276.352-.294.235-.44.543-.44.924 0 .279.073.506.22.682.146.176.432.345.858.506.425.161 1.063.323 1.914.484 1.408.279 2.412.711 3.014 1.298.616.587.924 1.305.924 2.156 0 1.027-.448 1.863-1.342 2.508-.895.645-2.149.968-3.762.968zm12.435 0c-1.716 0-3.044-.44-3.982-1.32-.939-.895-1.445-2.112-1.518-3.652l-.022-.968.022-.968c.073-1.525.586-2.735 1.54-3.63.953-.895 2.273-1.342 3.96-1.342 1.686 0 3.006.447 3.96 1.342.953.895 1.466 2.105 1.54 3.63.014.176.022.499.022.968 0 .47-.008.792-.022.968-.074 1.54-.58 2.757-1.518 3.652-.939.88-2.266 1.32-3.982 1.32zm0-2.178c.777 0 1.378-.242 1.804-.726.425-.499.66-1.225.704-2.178.014-.147.022-.433.022-.858s-.008-.711-.022-.858c-.044-.953-.279-1.672-.704-2.156-.426-.499-1.027-.748-1.804-.748-.778 0-1.379.25-1.804.748-.426.484-.66 1.203-.704 2.156l-.022.858.022.858c.044.953.278 1.68.704 2.178.425.484 1.026.726 1.804.726zM146.468 40a.51.51 0 01-.374-.154.512.512 0 01-.154-.374V29.11c0-.147.052-.271.154-.374a.48.48 0 01.374-.176h1.782c.162 0 .294.051.396.154a.535.535 0 01.154.396v.902a3.49 3.49 0 011.32-1.078c.543-.25 1.159-.374 1.848-.374h.902c.162 0 .286.051.374.154a.465.465 0 01.154.374v1.584a.508.508 0 01-.154.374.465.465 0 01-.374.154h-1.716c-.689 0-1.232.198-1.628.594-.396.396-.594.939-.594 1.628v6.05a.508.508 0 01-.154.374.534.534 0 01-.396.154h-1.914z" fill="#124476"/><path d="M3.069 4.096C-.506 9.016.379 17.1 5.79 18.1c12.02 2.214 26.86-6.723 28.86 10.577 1.46 1.099 2.821-1.64 2.92-3.985.098-2.345-.28-8.56-9.84-10.56.984-.804 3.526-.148 4.15.197.622.344 2.853 1.082 2.148-1.066-.706-2.149-2.132-5.56-15.317-7.117a11.478 11.478 0 01-7.903-4.789c-1.1-1.115-2.542-3.41-7.74 2.74zm.31 24.827c.493-2.57 1.75-4.93 3.607-6.772.87-.509.968-2.247-1.475-2.657-2.444-.41-3.87-1.64-5.133 1.378-1.263 3.017.87 9.134 3 8.051z" fill="#168DCC"/><path d="M37.913 35.039h-2.23a6.904 6.904 0 00-13.3-1.263 4.23 4.23 0 00-6.15 0A6.903 6.903 0 002.919 35.04H.638v1.64h2.247a6.904 6.904 0 0013.758 0 2.624 2.624 0 015.248 0 6.904 6.904 0 0013.758 0h2.214l.05-1.64zM9.69 41.467a5.296 5.296 0 110-10.593 5.296 5.296 0 010 10.593zm19.12 0a5.296 5.296 0 110-10.593 5.296 5.296 0 010 10.593z" fill="#FD3022"/></svg>